<?xml version="1.0" standalone="no"?>
<svg version="1.0" xmlns="http://www.w3.org/2000/svg"
 width="512.000000pt" height="512.000000pt" viewBox="0 0 512.000000 512.000000"
 preserveAspectRatio="xMidYMid meet">

<g transform="translate(0.000000,512.000000) scale(0.100000,-0.100000)"
fill="#FFFFFF" stroke="none">
<path d="M1018 3428 l-3 -1693 -50 3 c-198 10 -355 2 -355 -19 0 -5 -7 -9 -15
-9 -13 0 -103 -43 -130 -62 -56 -40 -139 -115 -172 -154 -51 -61 -128 -181
-138 -214 -4 -14 -11 -30 -15 -35 -36 -45 -120 -362 -120 -450 0 -30 -5 -77
-11 -105 -8 -38 -8 -55 0 -63 6 -6 11 -29 11 -52 0 -63 38 -202 78 -282 42
-85 128 -178 198 -213 27 -13 56 -29 64 -36 8 -6 37 -14 65 -17 27 -3 51 -10
53 -16 5 -14 29 -14 34 -1 2 6 21 13 43 16 51 8 174 67 242 116 74 54 194 174
234 233 18 28 36 52 39 55 10 8 70 140 101 224 16 43 41 133 56 200 l26 121 4
673 4 672 142 0 c153 0 254 20 309 60 15 11 30 20 34 20 10 0 121 106 175 167
52 60 169 270 169 305 0 7 12 47 26 88 66 193 95 434 82 672 -13 241 -85 455
-217 648 -46 68 -326 354 -396 405 -54 39 -158 146 -193 198 -16 23 -47 76
-69 118 -70 131 -51 119 -185 119 l-118 0 -2 -1692z m349 657 c19 -8 48 -15
64 -15 15 0 31 -4 34 -10 3 -5 21 -10 40 -10 19 0 36 -4 39 -9 3 -5 18 -12 32
-15 28 -7 90 -47 134 -86 14 -12 32 -27 41 -34 43 -30 115 -170 154 -295 22
-72 32 -309 16 -404 -45 -276 -124 -445 -266 -567 -91 -77 -231 -139 -347
-154 l-48 -6 0 804 c0 441 3 806 7 809 11 12 62 8 100 -8z"/>
<path d="M3060 2404 c0 -485 3 -889 6 -898 9 -23 189 -24 198 0 3 9 6 411 6
894 l0 879 -105 3 -105 3 0 -881z"/>
<path d="M3795 2820 c-11 -5 -32 -9 -47 -9 -16 -1 -28 -5 -28 -11 0 -5 -5 -10
-11 -10 -6 0 -32 -17 -59 -37 -51 -41 -106 -119 -140 -198 -12 -27 -25 -59
-30 -70 -4 -11 -16 -54 -27 -95 -26 -106 -26 -394 0 -495 44 -169 94 -263 185
-349 20 -20 43 -36 50 -36 6 0 12 -4 12 -9 0 -5 15 -12 33 -16 17 -4 39 -9 47
-12 31 -8 153 -4 163 6 6 6 19 11 30 11 22 0 121 97 161 157 l28 42 -53 88
c-29 48 -56 94 -62 100 -7 10 -23 -1 -61 -41 -29 -31 -69 -60 -94 -70 -41 -15
-45 -15 -85 3 -47 21 -85 58 -116 114 -72 129 -72 396 0 524 30 53 62 92 77
92 6 1 12 6 12 11 0 6 29 10 66 10 63 0 68 -2 104 -37 20 -21 45 -51 55 -66
10 -15 21 -24 26 -20 4 4 34 56 67 114 l59 107 -29 43 c-36 53 -102 115 -143
133 -72 31 -152 42 -190 26z"/>
<path d="M4630 2820 c-8 -5 -25 -10 -38 -10 -45 0 -135 -68 -191 -145 -146
-196 -189 -534 -106 -830 41 -147 142 -289 235 -331 19 -9 44 -20 55 -26 31
-14 159 -14 189 0 14 6 38 17 54 24 55 24 148 131 190 219 48 99 82 228 82
310 0 33 4 59 10 59 6 0 10 24 10 54 0 30 -4 58 -10 61 -5 3 -10 30 -10 59 0
57 -32 201 -55 253 -8 17 -15 33 -15 36 0 13 -71 124 -97 152 -32 34 -86 75
-123 92 -54 25 -158 38 -180 23z m149 -336 c151 -130 165 -497 25 -663 -28
-33 -84 -63 -121 -63 -89 -1 -186 120 -214 268 -16 84 -5 256 21 322 50 129
96 171 186 172 55 0 64 -3 103 -36z"/>
<path d="M2380 2801 c-8 -5 -40 -20 -70 -35 -30 -15 -63 -33 -72 -40 -19 -14
-19 -10 10 -151 6 -27 13 -67 17 -87 l6 -38 39 25 c22 14 48 25 59 25 11 0 23
5 26 10 3 6 39 10 78 9 88 -1 120 -17 160 -82 23 -38 30 -63 34 -127 7 -94 7
-94 -75 -51 -14 7 -64 12 -121 12 -85 0 -103 -3 -146 -25 -65 -35 -101 -76
-138 -155 -30 -64 -31 -70 -32 -216 0 -133 3 -157 23 -211 24 -63 88 -153 110
-154 6 0 12 -4 12 -10 0 -5 11 -10 24 -10 14 0 28 -4 31 -10 14 -22 185 -1
185 22 0 5 5 8 11 8 13 0 62 52 86 93 10 15 21 27 25 27 4 0 8 -31 8 -69 l0
-69 98 1 97 2 0 490 c0 454 -1 494 -19 550 -44 138 -91 204 -176 248 -47 25
-61 27 -163 26 -62 0 -119 -4 -127 -8z m240 -744 l45 -22 0 -100 c0 -88 -3
-105 -23 -138 -40 -63 -86 -91 -151 -92 -61 0 -80 11 -117 69 -38 59 -20 212
30 261 53 52 139 61 216 22z"/>
</g>
</svg>
